HIERARCHY
ROOT Hips
{
	OFFSET 0.000000 0.000000 0.000000
	CHANNELS 6 Xposition Yposition Zposition Zrotation Yrotation Xrotation 
	JOINT LHipJoint
	{
		OFFSET 0.000000 0.000000 0.000000
		CHANNELS 3 Zrotation Yrotation Xrotation
		JOINT LeftUpLeg
		{
			OFFSET 1.363060 -1.794630 0.839290
			CHANNELS 3 Zrotation Yrotation Xrotation
			JOINT LeftLeg
			{
				OFFSET 2.448110 -6.726130 0.000000
				CHANNELS 3 Zrotation Yrotation Xrotation
				JOINT LeftFoot
				{
					OFFSET 2.562200 -7.039590 0.000000
					CHANNELS 3 Zrotation Yrotation Xrotation
					JOINT LeftToeBase
					{
						OFFSET 0.157640 -0.433110 2.322550
						CHANNELS 3 Zrotation Yrotation Xrotation
						End Site
						{
							OFFSET 0.000000 0.000000 0.000000
						}
					}
				}
			}
		}
	}
	JOINT RHipJoint
	{
		OFFSET 0.000000 0.000000 0.000000
		CHANNELS 3 Zrotation Yrotation Xrotation
		JOINT RightUpLeg
		{
			OFFSET -1.305520 -1.794630 0.839290
			CHANNELS 3 Zrotation Yrotation Xrotation
			JOINT RightLeg
			{
				OFFSET -2.542530 -6.985550 0.000000
				CHANNELS 3 Zrotation Yrotation Xrotation
				JOINT RightFoot
				{
					OFFSET -2.568260 -7.056230 0.000000
					CHANNELS 3 Zrotation Yrotation Xrotation
					JOINT RightToeBase
					{
						OFFSET -0.164730 -0.452590 2.363150
						CHANNELS 3 Zrotation Yrotation Xrotation
						End Site
						{
							OFFSET 0.000000 0.000000 0.000000
						}
					}
				}
			}
		}
	}
}
MOTION
Frames: 25
Frame Time: 0.008333
-12.110504 17.011004 -0.950747 29.378535 87.646366 39.735053 -11.648192 5.277965 1.154885 -8.036027 9.854037 2.687356 -1.674472 1.202923 20.128458 -0.073829 -3.933711 5.921298 -0.687700 0.000000 -74.278100 7.343801 -1.579394 5.578962 13.966543 8.928236 -28.436639 3.322425 0.950065 5.247801 -0.362523 -2.891641 2.713040 -1.405900 -0.000000 -13.057900
-11.944713 17.032200 -0.941065 13.466552 87.102481 23.715732 -11.765934 5.567996 1.157275 -7.367140 10.384287 1.802289 -1.581965 1.461174 22.142772 -0.005178 -4.287592 7.681473 -0.929900 0.000000 -76.211200 7.382693 -1.448021 5.479084 14.635289 8.865739 -27.683017 3.433306 0.965589 5.612772 -0.252016 -2.404427 2.593565 -1.291199 0.000000 -11.181901
-11.781688 17.052739 -0.930004 -2.043905 86.709987 8.096209 -11.604025 5.780727 1.116945 -6.566085 10.940009 0.847942 -1.473473 1.695212 24.336644 0.066458 -4.758521 9.482709 -1.231500 0.000000 -77.218700 7.651606 -1.328592 5.416524 15.381053 8.736526 -26.938512 3.524514 0.954917 5.910661 -0.152955 -1.870764 2.363201 -1.150000 0.000001 -9.475200
-11.621600 17.072187 -0.917732 -15.334733 86.602266 -5.305196 -11.386219 5.824574 1.041239 -5.714739 11.473819 -0.165833 -1.297780 1.861289 26.717070 0.137015 -5.288598 11.282468 -1.575700 -0.000000 -77.182200 7.921840 -1.341843 5.388609 16.094351 8.509982 -26.238924 3.598136 0.914627 6.105109 -0.078494 -1.343690 2.029832 -0.999700 0.000001 -8.021800
-11.464459 17.090236 -0.904155 -25.570744 86.610150 -15.646110 -11.283604 5.767038 0.956747 -4.937169 11.991468 -1.264401 -1.081791 1.977301 29.218490 0.217613 -5.748088 13.004919 -1.923700 0.000000 -76.045300 8.063935 -1.447053 5.361066 16.710125 8.206850 -25.572203 3.670170 0.871479 6.244891 -0.012204 -0.809160 1.637073 -0.851001 0.000000 -6.952100
-11.310260 17.106640 -0.889866 -33.810678 86.617221 -23.975999 -11.271719 5.667931 0.868599 -4.233638 12.512330 -2.463330 -0.858700 2.067841 31.806115 0.312360 -6.033863 14.561069 -2.226600 -0.000000 -73.855300 8.116018 -1.580002 5.331721 17.257330 7.886005 -24.913128 3.744557 0.840668 6.330594 0.048512 -0.304052 1.233913 -0.718300 -0.000000 -6.266200
-11.158910 17.121332 -0.875127 -40.615616 86.598435 -30.849553 -11.308444 5.547290 0.778864 -3.606644 13.020151 -3.757090 -0.643069 2.144356 34.452655 0.419495 -6.041042 15.872418 -2.423199 -0.000000 -70.742700 8.118815 -1.714726 5.303982 17.752049 7.567186 -24.264870 3.818308 0.823932 6.365272 0.101798 0.145557 0.847186 -0.607100 0.000000 -5.997000
-11.010357 17.134301 -0.860229 -46.526437 86.558654 -36.804958 -11.366189 5.406825 0.687286 -3.051365 13.495573 -5.134665 -0.438024 2.211708 37.135130 0.535764 -5.686726 16.878454 -2.457100 -0.000000 -66.927000 8.094713 -1.845177 5.282915 18.207031 7.264578 -23.631568 3.888564 0.820025 6.342758 0.143640 0.513050 0.491445 -0.520300 -0.000000 -6.121900
-10.864521 17.145690 -0.845463 -51.867915 86.504956 -42.166203 -11.432211 5.245192 0.594706 -2.566318 13.918244 -6.582303 -0.243153 2.272943 39.826644 0.659514 -4.916111 17.540252 -2.289199 0.000000 -62.686500 8.052770 -1.970598 5.270936 18.629204 6.987610 -23.015309 3.953648 0.827623 6.259292 0.171535 0.783144 0.172422 -0.458100 0.000000 -6.589800
-10.721336 17.155725 -0.831009 -56.791433 86.441638 -47.085727 -11.500961 5.062070 0.502995 -2.152334 14.268651 -8.083727 -0.057732 2.330555 42.495864 0.791309 -3.711246 17.839070 -1.906700 0.000000 -58.306700 7.996756 -2.090334 5.267850 19.022260 6.743129 -22.414702 4.012696 0.845675 6.115019 0.184738 0.951847 -0.110099 -0.418300 -0.000000 -7.326500
-10.580721 17.164659 -0.816981 -61.375562 86.369970 -51.643071 -11.570417 4.857808 0.414550 -1.806895 14.530892 -9.623807 0.118527 2.386236 45.110927 0.933258 -2.097091 17.772823 -1.328600 0.000001 -54.027700 7.927887 -2.203461 5.273749 19.389225 6.542470 -21.824358 4.065370 0.873897 5.907653 0.182956 1.018020 -0.357981 -0.399000 -0.000000 -8.251200
-10.442711 17.172836 -0.803224 -65.514476 86.293319 -55.738138 -11.636156 4.637417 0.332406 -1.536205 14.688689 -11.180347 0.283850 2.442416 47.635989 1.087957 -0.133699 17.354906 -0.599800 0.000000 -50.009000 7.852606 -2.305901 5.282055 19.725238 6.376942 -21.240178 4.111091 0.910408 5.653332 0.169523 1.006142 -0.584535 -0.394100 -0.000000 -9.260300
-10.307224 17.180564 -0.789664 -69.224391 86.213513 -59.388940 -11.696424 4.403530 0.258892 -1.334113 14.733783 -12.739786 0.437174 2.499640 50.042425 1.256663 2.081589 16.608408 0.212100 0.000000 -46.324400 7.773623 -2.396001 5.291757 20.030190 6.255087 -20.653630 4.149732 0.954828 5.352280 0.145691 0.925963 -0.794839 -0.400800 -0.000000 -10.271000
-10.174270 17.188137 -0.776063 -72.459299 86.135155 -62.553963 -11.747491 4.161418 0.196419 -1.198778 14.659974 -14.285904 0.576702 2.558407 52.300922 1.438428 4.433160 15.568848 1.031100 0.000000 -42.984000 7.697239 -2.471121 5.298197 20.299235 6.171002 -20.059351 4.180964 1.005481 5.016154 0.114777 0.801579 -0.999453 -0.414100 0.000000 -11.199400
-10.043687 17.195749 -0.762412 -75.277308 86.058431 -65.289690 -11.789465 3.913381 0.146927 -1.116681 14.468135 -15.814619 0.701690 2.617749 54.391216 1.628980 6.791815 14.280582 1.780900 0.000001 -39.958700 7.623883 -2.531068 5.304565 20.533401 6.142763 -19.448892 4.204702 1.063106 4.634459 0.076650 0.631456 -1.194623 -0.433900 -0.000000 -12.009000
-9.915426 17.203589 -0.748335 -77.614769 85.991892 -67.537587 -11.817144 3.666935 0.112756 -1.089559 14.158043 -17.310991 0.810619 2.677183 56.288351 1.821376 9.039648 12.800317 2.401400 0.000000 -37.216999 7.562659 -2.573900 5.303518 20.724730 6.146722 -18.823215 4.220630 1.124691 4.229107 0.036404 0.450992 -1.393657 -0.453700 0.000000 -12.638800
-9.789326 17.211771 -0.733701 -79.502393 85.938658 -69.328170 -11.829288 3.426037 0.095673 -1.108595 13.735523 -18.771212 0.903060 2.734921 57.976053 2.006088 11.068889 11.187568 2.850500 0.000000 -34.735200 7.516376 -2.600191 5.294963 20.872355 6.180583 -18.181599 4.228858 1.189474 3.801281 -0.004243 0.269904 -1.594945 -0.471899 0.000000 -13.079900
-9.665117 17.220289 -0.718571 -80.972027 85.899225 -70.691484 -11.825842 3.193683 0.097313 -1.163335 13.209899 -20.195403 0.978713 2.788885 59.442495 2.172368 12.792646 9.499816 3.109100 0.000000 -32.486100 7.485817 -2.611379 5.280785 20.977735 6.244719 -17.524843 4.229755 1.257340 3.347695 -0.044504 0.090545 -1.792494 -0.488400 -0.000000 -13.345000
-9.542698 17.229102 -0.702782 -81.973422 85.880000 -71.583772 -11.803525 2.975886 0.118849 -1.253236 12.591298 -21.571791 1.036594 2.837371 60.673594 2.310286 14.154996 7.790410 3.182499 0.000000 -30.442800 7.477435 -2.608514 5.253845 21.037884 6.303145 -16.859353 4.224099 1.324904 2.890670 -0.079073 -0.054397 -1.991555 -0.498000 0.000000 -13.451900
-9.421415 17.238024 -0.686870 -82.623296 85.866686 -72.101784 -11.768447 2.768037 0.161949 -1.352847 11.892500 -22.926498 1.077281 2.877673 61.672475 2.411761 15.119728 6.108896 3.092700 -0.000000 -28.648900 7.480012 -2.594738 5.231708 21.067790 6.408774 -16.187566 4.212650 1.397961 2.386056 -0.115273 -0.218376 -2.164911 -0.510500 0.000000 -13.450000
-9.301255 17.247029 -0.670560 -82.756531 85.870107 -72.099315 -11.714363 2.579042 0.226426 -1.472017 11.127606 -24.231584 1.098737 2.909126 62.423955 2.472227 15.691005 4.488180 2.876401 0.000000 -27.046601 7.505603 -2.570984 5.196031 21.061344 6.480978 -15.520128 4.197252 1.469112 1.887614 -0.142104 -0.331182 -2.330326 -0.514901 0.000000 -13.374500
-9.181824 17.255868 -0.654262 -82.368550 85.880181 -71.564231 -11.644499 2.407132 0.312544 -1.595351 10.311840 -25.497132 1.100735 2.930550 62.930469 2.490793 15.890876 2.954957 2.574200 -0.000000 -25.631300 7.548412 -2.539558 5.153535 21.029552 6.532573 -14.862549 4.179604 1.540409 1.381869 -0.161411 -0.409183 -2.474850 -0.514800 0.000000 -13.277200
-9.062775 17.264413 -0.638209 -81.385244 85.890229 -70.422790 -11.559924 2.252986 0.419835 -1.715095 9.461149 -26.722612 1.082833 2.941745 63.193219 2.470676 15.767274 1.525575 2.227000 0.000000 -24.376800 7.606649 -2.501966 5.103832 20.979909 6.551494 -14.220819 4.161816 1.611455 0.875416 -0.171434 -0.443839 -2.595846 -0.509800 -0.000000 -13.199600
-8.943961 17.272465 -0.622682 -79.717014 85.891740 -68.588182 -11.462992 2.116760 0.547001 -1.823014 8.593345 -27.906043 1.045143 2.943275 63.216774 2.418752 15.386995 0.208459 1.869699 0.000000 -23.254500 7.676928 -2.459486 5.045770 20.920936 6.526190 -13.598802 4.146441 1.681718 0.377638 -0.170089 -0.423798 -2.692778 -0.499000 0.000000 -13.171000
-8.824817 17.279881 -0.607775 -77.328452 85.876970 -66.013261 -11.355469 1.997413 0.695294 -1.917374 7.715779 -29.063336 0.988674 2.935655 63.012357 2.344968 14.829967 -0.996698 1.529200 -0.000001 -22.232699 7.754970 -2.412019 4.986322 20.854198 6.472302 -13.009463 4.134347 1.753290 -0.115367 -0.158923 -0.359075 -2.763858 -0.484400 0.000000 -13.219900
